# xmcd
#
# Track frame offsets:
#	150
#	7779
#	25232
#	41818
#	56547
#	84989
#	107913
#	122754
#	144494
#	168937
#	184394
#	203213
#	229492
#
# Disc length: 3439 seconds
#
# Revision: 1
# Processed by: cddbd v1.5.2PL0 Copyright (c) Steve Scherf et al.
# Submitted via: audiograbber 1.83.01
#
DISCID=ad0d6d0d
DTITLE=Bottles - Reloaded Live
DYEAR=2010
DGENRE=Blues
TTITLE0=INTRO
TTITLE1=GOOD MORNING LITTLE SCHOOLGIRL
TTITLE2=RIOT IN CELLBLOCK NO. 9
TTITLE3=KEY TO THE HIGHWAY
TTITLE4=JOHNNY B. GOODE
TTITLE5=FLIP, FLOP and FLY
TTITLE6=WHAMMER JAMMER
TTITLE7=BEEN DOWN SO LONG
TTITLE8=HELLS BELLS
TTITLE9=FOLSOM PRISON BLUES
TTITLE10=PERSONAL JESUS
TTITLE11=SMOKED
TTITLE12=HOUSE OF THE RISING SUN
EXTD=
EXTT0=
EXTT1=
EXTT2=
EXTT3=
EXTT4=
EXTT5=
EXTT6=
EXTT7=
EXTT8=
EXTT9=
EXTT10=
EXTT11=
EXTT12=
PLAYORDER=
